<mxfile host="app.diagrams.net" modified="2023-06-04T06:00:24.111Z" agent="Mozilla/5.0 (Macintosh; Intel Mac OS X 10_15_7) AppleWebKit/537.36 (KHTML, like Gecko) Chrome/114.0.0.0 Safari/537.36" etag="sWl03e8S0g41hOpHsIl_" version="21.3.7" type="github">
  <diagram name="Page-1" id="a5_i011jku5_6ggLXp2v">
    <mxGraphModel dx="1434" dy="828" grid="1" gridSize="10" guides="1" tooltips="1" connect="1" arrows="1" fold="1" page="1" pageScale="1" pageWidth="850" pageHeight="1100" math="0" shadow="0">
      <root>
        <mxCell id="0" />
        <mxCell id="1" parent="0" />
        <mxCell id="LUOg1b43yxAuQ0-n9Lfa-1" value="Car" style="swimlane;fontStyle=0;childLayout=stackLayout;horizontal=1;startSize=30;horizontalStack=0;resizeParent=1;resizeParentMax=0;resizeLast=0;collapsible=1;marginBottom=0;whiteSpace=wrap;html=1;" parent="1" vertex="1">
          <mxGeometry x="280" y="40" width="200" height="180" as="geometry" />
        </mxCell>
        <mxCell id="LUOg1b43yxAuQ0-n9Lfa-2" value="engineType" style="text;strokeColor=none;fillColor=none;align=left;verticalAlign=middle;spacingLeft=4;spacingRight=4;overflow=hidden;points=[[0,0.5],[1,0.5]];portConstraint=eastwest;rotatable=0;whiteSpace=wrap;html=1;" parent="LUOg1b43yxAuQ0-n9Lfa-1" vertex="1">
          <mxGeometry y="30" width="200" height="30" as="geometry" />
        </mxCell>
        <mxCell id="LUOg1b43yxAuQ0-n9Lfa-3" value="batteryType" style="text;strokeColor=none;fillColor=none;align=left;verticalAlign=middle;spacingLeft=4;spacingRight=4;overflow=hidden;points=[[0,0.5],[1,0.5]];portConstraint=eastwest;rotatable=0;whiteSpace=wrap;html=1;" parent="LUOg1b43yxAuQ0-n9Lfa-1" vertex="1">
          <mxGeometry y="60" width="200" height="30" as="geometry" />
        </mxCell>
        <mxCell id="LUOg1b43yxAuQ0-n9Lfa-4" value="extra prop. that can be added" style="text;strokeColor=none;fillColor=none;align=left;verticalAlign=middle;spacingLeft=4;spacingRight=4;overflow=hidden;points=[[0,0.5],[1,0.5]];portConstraint=eastwest;rotatable=0;whiteSpace=wrap;html=1;" parent="LUOg1b43yxAuQ0-n9Lfa-1" vertex="1">
          <mxGeometry y="90" width="200" height="30" as="geometry" />
        </mxCell>
        <mxCell id="LUOg1b43yxAuQ0-n9Lfa-44" value="totalAge" style="text;strokeColor=none;fillColor=none;align=left;verticalAlign=middle;spacingLeft=4;spacingRight=4;overflow=hidden;points=[[0,0.5],[1,0.5]];portConstraint=eastwest;rotatable=0;whiteSpace=wrap;html=1;" parent="LUOg1b43yxAuQ0-n9Lfa-1" vertex="1">
          <mxGeometry y="120" width="200" height="30" as="geometry" />
        </mxCell>
        <mxCell id="LUOg1b43yxAuQ0-n9Lfa-45" value="totalMiles" style="text;strokeColor=none;fillColor=none;align=left;verticalAlign=middle;spacingLeft=4;spacingRight=4;overflow=hidden;points=[[0,0.5],[1,0.5]];portConstraint=eastwest;rotatable=0;whiteSpace=wrap;html=1;" parent="LUOg1b43yxAuQ0-n9Lfa-1" vertex="1">
          <mxGeometry y="150" width="200" height="30" as="geometry" />
        </mxCell>
        <mxCell id="LUOg1b43yxAuQ0-n9Lfa-15" value="Engine" style="swimlane;fontStyle=0;childLayout=stackLayout;horizontal=1;startSize=30;horizontalStack=0;resizeParent=1;resizeParentMax=0;resizeLast=0;collapsible=1;marginBottom=0;whiteSpace=wrap;html=1;" parent="1" vertex="1">
          <mxGeometry x="170" y="270" width="140" height="60" as="geometry" />
        </mxCell>
        <mxCell id="LUOg1b43yxAuQ0-n9Lfa-17" value="isServiceNeeded" style="text;strokeColor=none;fillColor=none;align=left;verticalAlign=middle;spacingLeft=4;spacingRight=4;overflow=hidden;points=[[0,0.5],[1,0.5]];portConstraint=eastwest;rotatable=0;whiteSpace=wrap;html=1;" parent="LUOg1b43yxAuQ0-n9Lfa-15" vertex="1">
          <mxGeometry y="30" width="140" height="30" as="geometry" />
        </mxCell>
        <mxCell id="LUOg1b43yxAuQ0-n9Lfa-19" value="Battery" style="swimlane;fontStyle=0;childLayout=stackLayout;horizontal=1;startSize=30;horizontalStack=0;resizeParent=1;resizeParentMax=0;resizeLast=0;collapsible=1;marginBottom=0;whiteSpace=wrap;html=1;" parent="1" vertex="1">
          <mxGeometry x="490" y="270" width="140" height="60" as="geometry" />
        </mxCell>
        <mxCell id="LUOg1b43yxAuQ0-n9Lfa-20" value="isServiceNeeded" style="text;strokeColor=none;fillColor=none;align=left;verticalAlign=middle;spacingLeft=4;spacingRight=4;overflow=hidden;points=[[0,0.5],[1,0.5]];portConstraint=eastwest;rotatable=0;whiteSpace=wrap;html=1;" parent="LUOg1b43yxAuQ0-n9Lfa-19" vertex="1">
          <mxGeometry y="30" width="140" height="30" as="geometry" />
        </mxCell>
        <mxCell id="LUOg1b43yxAuQ0-n9Lfa-22" value="" style="endArrow=diamondThin;endFill=0;endSize=24;html=1;rounded=0;exitX=0.5;exitY=0;exitDx=0;exitDy=0;entryX=0;entryY=0.5;entryDx=0;entryDy=0;" parent="1" source="LUOg1b43yxAuQ0-n9Lfa-15" target="LUOg1b43yxAuQ0-n9Lfa-2" edge="1">
          <mxGeometry width="160" relative="1" as="geometry">
            <mxPoint x="340" y="430" as="sourcePoint" />
            <mxPoint x="500" y="430" as="targetPoint" />
            <Array as="points">
              <mxPoint x="240" y="240" />
              <mxPoint x="240" y="85" />
            </Array>
          </mxGeometry>
        </mxCell>
        <mxCell id="LUOg1b43yxAuQ0-n9Lfa-49" value="has" style="edgeLabel;html=1;align=center;verticalAlign=middle;resizable=0;points=[];" parent="LUOg1b43yxAuQ0-n9Lfa-22" vertex="1" connectable="0">
          <mxGeometry x="-0.3156" y="-1" relative="1" as="geometry">
            <mxPoint as="offset" />
          </mxGeometry>
        </mxCell>
        <mxCell id="LUOg1b43yxAuQ0-n9Lfa-23" value="" style="endArrow=block;endSize=16;endFill=0;html=1;rounded=0;entryX=0.5;entryY=0;entryDx=0;entryDy=0;" parent="1" target="LUOg1b43yxAuQ0-n9Lfa-26" edge="1">
          <mxGeometry width="160" relative="1" as="geometry">
            <mxPoint x="196" y="330" as="sourcePoint" />
            <mxPoint x="230" y="500" as="targetPoint" />
            <Array as="points">
              <mxPoint x="196" y="390" />
              <mxPoint x="110" y="390" />
            </Array>
          </mxGeometry>
        </mxCell>
        <mxCell id="LUOg1b43yxAuQ0-n9Lfa-51" value="is-a" style="edgeLabel;html=1;align=center;verticalAlign=middle;resizable=0;points=[];" parent="LUOg1b43yxAuQ0-n9Lfa-23" vertex="1" connectable="0">
          <mxGeometry x="-0.6327" y="-1" relative="1" as="geometry">
            <mxPoint as="offset" />
          </mxGeometry>
        </mxCell>
        <mxCell id="LUOg1b43yxAuQ0-n9Lfa-24" value="" style="endArrow=diamondThin;endFill=0;endSize=24;html=1;rounded=0;exitX=0.5;exitY=0;exitDx=0;exitDy=0;entryX=1;entryY=0.5;entryDx=0;entryDy=0;" parent="1" source="LUOg1b43yxAuQ0-n9Lfa-19" target="LUOg1b43yxAuQ0-n9Lfa-3" edge="1">
          <mxGeometry width="160" relative="1" as="geometry">
            <mxPoint x="200" y="290" as="sourcePoint" />
            <mxPoint x="390" y="210" as="targetPoint" />
            <Array as="points">
              <mxPoint x="560" y="115" />
            </Array>
          </mxGeometry>
        </mxCell>
        <mxCell id="LUOg1b43yxAuQ0-n9Lfa-50" value="has" style="edgeLabel;html=1;align=center;verticalAlign=middle;resizable=0;points=[];" parent="LUOg1b43yxAuQ0-n9Lfa-24" vertex="1" connectable="0">
          <mxGeometry x="-0.3702" y="2" relative="1" as="geometry">
            <mxPoint as="offset" />
          </mxGeometry>
        </mxCell>
        <mxCell id="LUOg1b43yxAuQ0-n9Lfa-26" value="Capulet" style="swimlane;fontStyle=0;childLayout=stackLayout;horizontal=1;startSize=30;horizontalStack=0;resizeParent=1;resizeParentMax=0;resizeLast=0;collapsible=1;marginBottom=0;whiteSpace=wrap;html=1;" parent="1" vertex="1">
          <mxGeometry x="40" y="440" width="140" height="60" as="geometry" />
        </mxCell>
        <mxCell id="LUOg1b43yxAuQ0-n9Lfa-28" value="milesAfterService" style="text;strokeColor=none;fillColor=none;align=left;verticalAlign=middle;spacingLeft=4;spacingRight=4;overflow=hidden;points=[[0,0.5],[1,0.5]];portConstraint=eastwest;rotatable=0;whiteSpace=wrap;html=1;" parent="LUOg1b43yxAuQ0-n9Lfa-26" vertex="1">
          <mxGeometry y="30" width="140" height="30" as="geometry" />
        </mxCell>
        <mxCell id="LUOg1b43yxAuQ0-n9Lfa-29" value="Sternman" style="swimlane;fontStyle=0;childLayout=stackLayout;horizontal=1;startSize=30;horizontalStack=0;resizeParent=1;resizeParentMax=0;resizeLast=0;collapsible=1;marginBottom=0;whiteSpace=wrap;html=1;" parent="1" vertex="1">
          <mxGeometry x="170" y="560" width="140" height="60" as="geometry" />
        </mxCell>
        <mxCell id="LUOg1b43yxAuQ0-n9Lfa-30" value="serviceIndicator" style="text;strokeColor=none;fillColor=none;align=left;verticalAlign=middle;spacingLeft=4;spacingRight=4;overflow=hidden;points=[[0,0.5],[1,0.5]];portConstraint=eastwest;rotatable=0;whiteSpace=wrap;html=1;" parent="LUOg1b43yxAuQ0-n9Lfa-29" vertex="1">
          <mxGeometry y="30" width="140" height="30" as="geometry" />
        </mxCell>
        <mxCell id="LUOg1b43yxAuQ0-n9Lfa-32" value="Willoughby" style="swimlane;fontStyle=0;childLayout=stackLayout;horizontal=1;startSize=30;horizontalStack=0;resizeParent=1;resizeParentMax=0;resizeLast=0;collapsible=1;marginBottom=0;whiteSpace=wrap;html=1;" parent="1" vertex="1">
          <mxGeometry x="280" y="440" width="140" height="60" as="geometry" />
        </mxCell>
        <mxCell id="LUOg1b43yxAuQ0-n9Lfa-33" value="milesAfterService" style="text;strokeColor=none;fillColor=none;align=left;verticalAlign=middle;spacingLeft=4;spacingRight=4;overflow=hidden;points=[[0,0.5],[1,0.5]];portConstraint=eastwest;rotatable=0;whiteSpace=wrap;html=1;" parent="LUOg1b43yxAuQ0-n9Lfa-32" vertex="1">
          <mxGeometry y="30" width="140" height="30" as="geometry" />
        </mxCell>
        <mxCell id="LUOg1b43yxAuQ0-n9Lfa-35" value="" style="endArrow=block;endSize=16;endFill=0;html=1;rounded=0;entryX=0.5;entryY=0;entryDx=0;entryDy=0;" parent="1" target="LUOg1b43yxAuQ0-n9Lfa-29" edge="1">
          <mxGeometry width="160" relative="1" as="geometry">
            <mxPoint x="240" y="330" as="sourcePoint" />
            <mxPoint x="240" y="510" as="targetPoint" />
          </mxGeometry>
        </mxCell>
        <mxCell id="LUOg1b43yxAuQ0-n9Lfa-52" value="is-a" style="edgeLabel;html=1;align=center;verticalAlign=middle;resizable=0;points=[];" parent="LUOg1b43yxAuQ0-n9Lfa-35" vertex="1" connectable="0">
          <mxGeometry x="0.0174" y="1" relative="1" as="geometry">
            <mxPoint as="offset" />
          </mxGeometry>
        </mxCell>
        <mxCell id="LUOg1b43yxAuQ0-n9Lfa-37" value="" style="endArrow=block;endSize=16;endFill=0;html=1;rounded=0;entryX=0.5;entryY=0;entryDx=0;entryDy=0;" parent="1" target="LUOg1b43yxAuQ0-n9Lfa-32" edge="1">
          <mxGeometry width="160" relative="1" as="geometry">
            <mxPoint x="280" y="330" as="sourcePoint" />
            <mxPoint x="120" y="450" as="targetPoint" />
            <Array as="points">
              <mxPoint x="280" y="400" />
              <mxPoint x="350" y="400" />
            </Array>
          </mxGeometry>
        </mxCell>
        <mxCell id="LUOg1b43yxAuQ0-n9Lfa-53" value="is-a" style="edgeLabel;html=1;align=center;verticalAlign=middle;resizable=0;points=[];" parent="LUOg1b43yxAuQ0-n9Lfa-37" vertex="1" connectable="0">
          <mxGeometry x="-0.5556" y="2" relative="1" as="geometry">
            <mxPoint as="offset" />
          </mxGeometry>
        </mxCell>
        <mxCell id="LUOg1b43yxAuQ0-n9Lfa-38" value="Nubbin" style="swimlane;fontStyle=0;childLayout=stackLayout;horizontal=1;startSize=30;horizontalStack=0;resizeParent=1;resizeParentMax=0;resizeLast=0;collapsible=1;marginBottom=0;whiteSpace=wrap;html=1;" parent="1" vertex="1">
          <mxGeometry x="490" y="440" width="140" height="60" as="geometry" />
        </mxCell>
        <mxCell id="LUOg1b43yxAuQ0-n9Lfa-39" value="yearsAfterService" style="text;strokeColor=none;fillColor=none;align=left;verticalAlign=middle;spacingLeft=4;spacingRight=4;overflow=hidden;points=[[0,0.5],[1,0.5]];portConstraint=eastwest;rotatable=0;whiteSpace=wrap;html=1;" parent="LUOg1b43yxAuQ0-n9Lfa-38" vertex="1">
          <mxGeometry y="30" width="140" height="30" as="geometry" />
        </mxCell>
        <mxCell id="LUOg1b43yxAuQ0-n9Lfa-41" value="Spindler" style="swimlane;fontStyle=0;childLayout=stackLayout;horizontal=1;startSize=30;horizontalStack=0;resizeParent=1;resizeParentMax=0;resizeLast=0;collapsible=1;marginBottom=0;whiteSpace=wrap;html=1;" parent="1" vertex="1">
          <mxGeometry x="680" y="440" width="140" height="60" as="geometry" />
        </mxCell>
        <mxCell id="LUOg1b43yxAuQ0-n9Lfa-42" value="yearsAfterService" style="text;strokeColor=none;fillColor=none;align=left;verticalAlign=middle;spacingLeft=4;spacingRight=4;overflow=hidden;points=[[0,0.5],[1,0.5]];portConstraint=eastwest;rotatable=0;whiteSpace=wrap;html=1;" parent="LUOg1b43yxAuQ0-n9Lfa-41" vertex="1">
          <mxGeometry y="30" width="140" height="30" as="geometry" />
        </mxCell>
        <mxCell id="LUOg1b43yxAuQ0-n9Lfa-46" value="" style="endArrow=block;endSize=16;endFill=0;html=1;rounded=0;entryX=0.5;entryY=0;entryDx=0;entryDy=0;exitX=0.493;exitY=1;exitDx=0;exitDy=0;exitPerimeter=0;" parent="1" source="LUOg1b43yxAuQ0-n9Lfa-20" target="LUOg1b43yxAuQ0-n9Lfa-38" edge="1">
          <mxGeometry width="160" relative="1" as="geometry">
            <mxPoint x="560" y="360" as="sourcePoint" />
            <mxPoint x="360" y="450" as="targetPoint" />
            <Array as="points" />
          </mxGeometry>
        </mxCell>
        <mxCell id="LUOg1b43yxAuQ0-n9Lfa-54" value="is-a" style="edgeLabel;html=1;align=center;verticalAlign=middle;resizable=0;points=[];" parent="LUOg1b43yxAuQ0-n9Lfa-46" vertex="1" connectable="0">
          <mxGeometry x="-0.1817" y="1" relative="1" as="geometry">
            <mxPoint as="offset" />
          </mxGeometry>
        </mxCell>
        <mxCell id="LUOg1b43yxAuQ0-n9Lfa-47" value="" style="endArrow=block;endSize=16;endFill=0;html=1;rounded=0;entryX=0.5;entryY=0;entryDx=0;entryDy=0;exitX=0.964;exitY=1.033;exitDx=0;exitDy=0;exitPerimeter=0;" parent="1" source="LUOg1b43yxAuQ0-n9Lfa-20" target="LUOg1b43yxAuQ0-n9Lfa-41" edge="1">
          <mxGeometry width="160" relative="1" as="geometry">
            <mxPoint x="627" y="360" as="sourcePoint" />
            <mxPoint x="570" y="450" as="targetPoint" />
            <Array as="points">
              <mxPoint x="625" y="400" />
              <mxPoint x="750" y="400" />
            </Array>
          </mxGeometry>
        </mxCell>
        <mxCell id="LUOg1b43yxAuQ0-n9Lfa-55" value="is-a" style="edgeLabel;html=1;align=center;verticalAlign=middle;resizable=0;points=[];" parent="LUOg1b43yxAuQ0-n9Lfa-47" vertex="1" connectable="0">
          <mxGeometry x="-0.6324" y="2" relative="1" as="geometry">
            <mxPoint as="offset" />
          </mxGeometry>
        </mxCell>
      </root>
    </mxGraphModel>
  </diagram>
</mxfile>
